<?xml version="1.0" encoding="UTF-8"?>
<!DOCTYPE svg PUBLIC "-//W3C//DTD SVG 1.1//EN" "http://www.w3.org/Graphics/SVG/1.1/DTD/svg11.dtd">
<!-- Creator: CorelDRAW -->
<svg xmlns="http://www.w3.org/2000/svg" xml:space="preserve" width="2048px" height="2048px" style="shape-rendering:geometricPrecision; text-rendering:geometricPrecision; image-rendering:optimizeQuality; fill-rule:evenodd; clip-rule:evenodd"
viewBox="0 0 2048 2048"
 xmlns:xlink="http://www.w3.org/1999/xlink">
 <defs>
  <style type="text/css">
   <![CDATA[
    .fil2 {fill:none}
    .fil1 {fill:#424242}
    .fil0 {fill:#424242;fill-rule:nonzero}
   ]]>
  </style>
 </defs>
 <g id="Layer_x0020_1">
  <metadata id="CorelCorpID_0Corel-Layer"/>
  <g id="_325039392">
   <path id="_325039800" class="fil0" d="M255.998 695.305l0 -204.814c0,-17.6728 14.328,-32.0008 32.0008,-32.0008l1472 0c17.6728,0 32.0008,14.328 32.0008,32.0008l0 204.814 -1536 0zm1026.79 -150.408c-17.6728,0 -32.0008,14.328 -32.0008,32.0008 0,17.6728 14.328,32.0008 32.0008,32.0008l16.5225 0c17.6728,0 32.0008,-14.328 32.0008,-32.0008 0,-17.6728 -14.328,-32.0008 -32.0008,-32.0008l-16.5225 0zm165.716 0c-17.6728,0 -32.0008,14.328 -32.0008,32.0008 0,17.6728 14.328,32.0008 32.0008,32.0008l16.5225 0c17.6728,0 32.0008,-14.328 32.0008,-32.0008 0,-17.6728 -14.328,-32.0008 -32.0008,-32.0008l-16.5225 0zm165.717 0c-17.6728,0 -32.0008,14.328 -32.0008,32.0008 0,17.6728 14.328,32.0008 32.0008,32.0008l16.5225 0c17.6728,0 32.0008,-14.328 32.0008,-32.0008 0,-17.6728 -14.328,-32.0008 -32.0008,-32.0008l-16.5225 0z"/>
   <path id="_325039776" class="fil1" d="M1792 1557.51l0 -830.203 -1536 0 0 830.203c0,17.6728 14.328,32.0008 32.0008,32.0008l1472 0c17.6728,0 32.0008,-14.328 32.0008,-32.0008zm-816.71 -619.296c61.1186,-17.8689 205.495,-64.4351 269.316,-122.261l-0.0696851 -0.0755906c9.5941,-8.6941 24.4217,-7.96536 33.1158,1.62874 4.0689,4.48937 6.07441,10.1256 6.07205,15.7429l0 0.0259843 0 277.671 0 277.7c0,12.9473 -10.4965,23.4449 -23.4437,23.4449 -6.73111,0 -12.7996,-2.83819 -17.0752,-7.38071 -64.4989,-57.2528 -207.238,-103.286 -267.916,-121.029l0 -345.468zm331.878 271.713c14.3776,-5.33504 27.2776,-13.7114 37.9158,-24.3508 19.0996,-19.0984 30.9154,-45.4855 30.9154,-74.6292 0,-29.1425 -11.8158,-55.5296 -30.9154,-74.628 -10.6382,-10.6382 -23.5382,-19.0158 -37.9158,-24.3508l0 197.959zm-384.121 66.6827l0 206.958c0,12.9484 -10.4976,23.4449 -23.4449,23.4449l-90.0402 0c-12.9461,0 -23.4437,-10.4965 -23.4437,-23.4449l0 -214.082c-25.4646,-7.86142 -48.287,-21.8776 -66.7016,-40.2933 -29.2571,-29.2571 -47.4178,-69.6343 -47.4178,-114.066l0 -8.35512c0,-44.4319 18.1606,-84.8103 47.4178,-114.067 29.2559,-29.2559 69.6343,-47.4178 114.066,-47.4178l116.692 0 0 331.324 -27.1276 0z"/>
  </g>
 </g>
 <rect class="fil2" width="2048" height="2048"/>
</svg>
