<?xml version="1.0" encoding="UTF-8"?>
<!DOCTYPE svg PUBLIC "-//W3C//DTD SVG 1.1//EN" "http://www.w3.org/Graphics/SVG/1.1/DTD/svg11.dtd">
<!-- Creator: CorelDRAW -->
<svg xmlns="http://www.w3.org/2000/svg" xml:space="preserve" width="2048px" height="2048px" style="shape-rendering:geometricPrecision; text-rendering:geometricPrecision; image-rendering:optimizeQuality; fill-rule:evenodd; clip-rule:evenodd"
viewBox="0 0 2048 2048"
 xmlns:xlink="http://www.w3.org/1999/xlink">
 <defs>
  <style type="text/css">
   <![CDATA[
    .fil2 {fill:none}
    .fil0 {fill:#424242}
    .fil1 {fill:#424242;fill-rule:nonzero}
   ]]>
  </style>
 </defs>
 <g id="Layer_x0020_1">
  <metadata id="CorelCorpID_0Corel-Layer"/>
  <g id="_477075664">
   <path id="_477075880" class="fil0" d="M304.656 388.935l783.334 0 0 393.155 -31.0488 -7.61339c-1.55315,-0.445276 -3.04134,-0.872835 -4.64055,-1.2 -24.8811,-5.09528 -51.1559,0.28937 -72.2457,14.3728 -2.99173,1.99725 -5.85237,4.14567 -8.57481,6.43583l-107.243 -62.5985c-22.8484,-13.337 -52.3075,-5.59371 -65.6422,17.2559 -13.3347,22.8473 -5.59252,52.3028 17.2547,65.6386l123.536 72.1099c2.49213,12.1181 7.29922,23.7626 14.2382,34.154 13.9512,20.8937 35.5217,34.8402 59.8311,40.6075l74.5347 17.6835 0 81.9993 -783.334 0 0 -672.001zm122.531 487.554c-3.55394,6.60709 -1.07599,14.8465 5.52993,18.3992 6.60709,3.55394 14.8465,1.07599 18.4004,-5.53111l54.6957 -101.883 62.8465 45.613 -0.0129921 0.0165354c6.08504,4.41615 14.5984,3.0626 19.0146,-3.02126l0.269292 -0.387402 130.391 -172.054 87.9993 58.6654 7.55197 -11.3268 -7.55197 11.328c6.17953,4.11851 14.5016,2.51929 18.724,-3.54922l172.293 -213.317c4.69961,-5.84292 3.7689,-14.3917 -2.07402,-19.0902 -5.84292,-4.69961 -14.3917,-3.7689 -19.0902,2.07402l-165.058 204.356 -88.3347 -58.8886c-5.94213,-3.97205 -14.028,-2.66811 -18.4004,3.10276l10.8484 8.22284 -10.8473 -8.18977 -130.528 172.236 -64.0312 -46.4729c-0.666142,-0.542126 -1.3937,-1.02992 -2.17914,-1.45276 -6.62363,-3.55512 -14.8772,-1.0689 -18.4335,5.55591l0.0248032 0.0129921 -62.0481 115.582zm-7.65237 -382.583c0,-7.5189 -6.09567,-13.6134 -13.6134,-13.6134 -7.5189,0 -13.6134,6.09449 -13.6134,13.6134l0 425.417c0,7.51772 6.09449,13.6134 13.6134,13.6134l503.41 0c7.51772,0 13.6134,-6.09567 13.6134,-13.6134 0,-7.51772 -6.09567,-13.6134 -13.6134,-13.6134l-489.796 0 0 -411.803z"/>
   <path id="_477076120" class="fil0" d="M1423.68 1299.47c3.95315,-29.2677 30.8646,-26.4154 35.9823,0.229134l31.4469 369.383c1.40551,16.5 6.37796,33.5587 18.365,45.5457 11.7662,11.7673 27.5421,18.3059 44.1863,18.3059 16.6453,0 32.4201,-6.53859 44.1886,-18.3059 11.7673,-11.7685 18.3059,-27.5433 18.3059,-44.1886l0 -752.207c18.6685,31.6807 72.0804,133.025 91.1953,154.074 11.1732,12.3201 26.5902,19.6477 43.2071,20.4638 16.5154,0.811418 32.6044,-5.01378 44.85,-16.1126 12.3295,-11.1756 19.663,-26.5996 20.4791,-43.2248 0.811418,-16.5154 -5.01378,-32.6032 -16.1126,-44.8489 -65.4615,-94.2721 -150.722,-266.669 -238.93,-334.69 -35.5477,-27.4122 -74.0363,-40.963 -119.183,-40.963 -95.2076,0 -197.476,114.524 -257.81,180.197 -9.30946,10.135 -18.6142,20.2831 -28.1091,30.2445l-6.39331 6.70512 -100.299 -24.5941c-1.04764,-0.256299 -2.13071,-0.641339 -3.16418,-0.862205 -16.6843,-3.26811 -33.9272,0.200788 -48.0555,9.63544 -14.139,9.44174 -23.9091,23.9091 -27.2339,40.6016 -3.32008,16.6701 0.219685,33.9 9.64371,48.013 9.44292,14.1413 24.1748,23.3433 40.6063,27.2421l119.407 28.3288 0.119291 -0.506693 15.9095 4.24725c9.80906,2.61969 19.6866,3.72166 29.7036,1.55315 11.8748,-2.57126 21.9886,-11.263 30.3508,-19.624l50.8311 -50.8323 0 777.16c0,16.6453 6.53977,32.4201 18.3071,44.1886 11.7662,11.7673 27.5421,18.3059 44.1863,18.3059 16.6453,0 32.4201,-6.53859 44.1886,-18.3059 11.9858,-11.987 16.9583,-29.0457 18.3638,-45.5457l31.467 -369.612z"/>
   <path id="_477076624" class="fil1" d="M1349.11 354c24.0579,-24.0579 57.293,-38.9386 93.9981,-38.9386 36.7075,0 69.9426,14.8819 93.9981,38.9386 24.0579,24.0579 38.9386,57.293 38.9386,93.9981 0,36.7063 -14.8807,69.9402 -38.9386,93.9981 -24.0555,24.0567 -57.2906,38.9386 -93.9981,38.9386 -36.7051,0 -69.9402,-14.8807 -93.9981,-38.9386 -24.0579,-24.0579 -38.9386,-57.2918 -38.9386,-93.9981 0,-36.7051 14.8807,-69.9402 38.9386,-93.9981z"/>
   <path id="_477076480" class="fil1" d="M982.615 874.673c7.62756,4.45158 17.4225,1.87795 21.874,-5.74961 4.45158,-7.62756 1.87795,-17.4225 -5.74961,-21.874l-150.634 -87.9272c-7.62756,-4.45158 -17.4225,-1.87795 -21.874,5.74961 -4.45158,7.62756 -1.87795,17.4225 5.74961,21.874l150.634 87.9272z"/>
   <path id="_477075928" class="fil1" d="M264.043 356.936c-17.6728,0 -32.0008,14.328 -32.0008,32.0008 0,17.6728 14.328,32.0008 32.0008,32.0008l864.003 0c17.6728,0 32.0008,-14.328 32.0008,-32.0008 0,-17.6728 -14.328,-32.0008 -32.0008,-32.0008l-864.003 0z"/>
   <path id="_477075976" class="fil1" d="M264.043 1028.93c-17.6728,0 -32.0008,14.328 -32.0008,32.0008 0,17.6728 14.328,32.0008 32.0008,32.0008l864.003 0c17.6728,0 32.0008,-14.328 32.0008,-32.0008 0,-17.6728 -14.328,-32.0008 -32.0008,-32.0008l-864.003 0z"/>
   <path id="_477076528" class="fil1" d="M664.043 1625.31c0,17.6728 14.328,32.0008 32.0008,32.0008 17.6728,0 32.0008,-14.328 32.0008,-32.0008l0 -564.372c0,-17.6728 -14.328,-32.0008 -32.0008,-32.0008 -17.6728,0 -32.0008,14.328 -32.0008,32.0008l0 564.372z"/>
   <path id="_477075688" class="fil1" d="M570.532 1655.56c-16.2225,6.83386 -23.8335,25.5284 -16.9996,41.7508 6.83386,16.2225 25.5284,23.8335 41.7508,16.9996l100.761 -42.75 100.761 42.75c16.2225,6.83386 34.917,-0.777166 41.7508,-16.9996 6.83386,-16.2225 -0.777166,-34.917 -16.9996,-41.7508l-110.472 -46.8697c-8.22875,-4.37599 -18.2894,-5.1378 -27.5386,-1.21417l0.0484252 0.115748 -113.062 47.9681z"/>
  </g>
 </g>
 <rect class="fil2" width="2048" height="2048"/>
</svg>
