<?xml version="1.0" encoding="utf-8"?>
<!-- Generator: Adobe Illustrator 19.2.0, SVG Export Plug-In . SVG Version: 6.00 Build 0)  -->
<svg version="1.1" id="Layer_1" xmlns="http://www.w3.org/2000/svg" xmlns:xlink="http://www.w3.org/1999/xlink" x="0px" y="0px"
	 viewBox="0 0 500 500" style="enable-background:new 0 0 500 500;" xml:space="preserve">
<style type="text/css">
	.st0{fill:#ECF4F7;}
	.st1{fill:#1C1D21;}
	.st2{fill:#83E1E5;}
	.st3{fill:#AAB1BA;}
	.st4{fill:none;stroke:#1C1D21;stroke-width:10;stroke-linecap:round;stroke-linejoin:round;stroke-miterlimit:10;}
	.st5{fill:#FDDF7F;}
	.st6{fill:#FFFFFF;}
</style>
<g>
	<g>
		<g>
			<g>
				<path class="st3" d="M366.5,59.3H133.5V35c0-16.6,13.4-30,30-30h173.1c16.6,0,30,13.4,30,30V59.3z"/>
			</g>
		</g>
		<g>
			<g>
				<path class="st2" d="M395,59.3H105c-11,0-20,9-20,20v19.1c0,11,9,20,20,20H395c11,0,20-9,20-20V79.3
					C415,68.3,406.1,59.3,395,59.3z"/>
			</g>
		</g>
		<g>
			<g>
				<path class="st0" d="M373.5,118.4L336,477.1c-1.1,10.2-9.7,17.9-19.9,17.9H183.9c-10.2,0-18.8-7.7-19.9-17.9l-37.5-358.7H373.5z
					"/>
			</g>
		</g>
	</g>
	<g>
		<g>
			<g>
				<path class="st3" d="M161.4,452.6l2.6,24.5c1.1,10.2,9.7,17.9,19.9,17.9h132.3c10.2,0,18.8-7.7,19.9-17.9l2.6-24.5H161.4z"/>
			</g>
		</g>
	</g>
	<g>
		<g>
			<g>
				<path class="st1" d="M366.5,64.3H133.5c-2.8,0-5-2.2-5-5V35c0-19.3,15.7-35,35-35h46c2.8,0,5,2.2,5,5s-2.2,5-5,5h-46
					c-13.8,0-25,11.2-25,25v19.3h223.1V35c0-13.8-11.2-25-25-25h-61c-2.8,0-5-2.2-5-5s2.2-5,5-5h61c19.3,0,35,15.7,35,35v24.3
					C371.5,62.1,369.3,64.3,366.5,64.3z"/>
			</g>
		</g>
		<g>
			<g>
				<path class="st1" d="M250,10h-9.5c-2.8,0-5-2.2-5-5s2.2-5,5-5h9.5c2.8,0,5,2.2,5,5S252.8,10,250,10z"/>
			</g>
		</g>
		<g>
			<g>
				<path class="st1" d="M395,123.4H105c-13.8,0-25-11.2-25-25V79.3c0-13.8,11.2-25,25-25H395c13.8,0,25,11.2,25,25v19.1
					C420,112.1,408.8,123.4,395,123.4z M105,64.3c-8.3,0-15,6.7-15,15v19.1c0,8.3,6.7,15,15,15H395c8.3,0,15-6.7,15-15V79.3
					c0-8.3-6.7-15-15-15H105z"/>
			</g>
		</g>
		<g>
			<g>
				<path class="st1" d="M316.1,500H183.9c-12.8,0-23.5-9.6-24.9-22.4l-37.5-358.7c-0.1-1.4,0.3-2.8,1.3-3.9
					c0.9-1.1,2.3-1.7,3.7-1.7h247c1.4,0,2.8,0.6,3.7,1.7c0.9,1.1,1.4,2.5,1.3,3.9L341,477.6C339.7,490.4,329,500,316.1,500z
					 M132,123.4L169,476.6c0.8,7.7,7.2,13.4,14.9,13.4h132.3c7.7,0,14.1-5.8,14.9-13.4L368,123.4H132z"/>
			</g>
		</g>
	</g>
	<g>
		<g>
			<circle class="st5" cx="250" cy="264.5" r="74.5"/>
		</g>
	</g>
	<g>
		<g>
			<path class="st1" d="M178.6,248.2c-0.5,0-1-0.1-1.4-0.2c-2.6-0.8-4.2-3.6-3.4-6.2c1.2-4,2.7-7.9,4.5-11.6
				c6.3-13.2,16.2-24.4,28.5-32.4c2.3-1.5,5.4-0.8,6.9,1.5c1.5,2.3,0.8,5.4-1.5,6.9c-10.8,7-19.4,16.8-24.9,28.4
				c-1.6,3.3-2.9,6.7-3.9,10.1C182.7,246.8,180.7,248.2,178.6,248.2z"/>
		</g>
	</g>
	<g>
		<g>
			<path class="st1" d="M250,344c-19.8,0-38.8-7.3-53.5-20.7c-14.6-13.2-23.7-31.3-25.6-50.8c-0.3-2.7,1.7-5.2,4.5-5.5
				c2.7-0.3,5.2,1.7,5.5,4.5c3.6,35.6,33.3,62.4,69.1,62.4c38.3,0,69.5-31.2,69.5-69.5S288.3,195,250,195c-5.3,0-10.6,0.6-15.7,1.8
				c-2.7,0.6-5.4-1.1-6-3.7c-0.6-2.7,1.1-5.4,3.7-6c5.9-1.4,11.9-2,17.9-2c43.8,0,79.5,35.7,79.5,79.5S293.8,344,250,344z"/>
		</g>
	</g>
	<g>
		<g>
			<path class="st1" d="M221,456.8h-59.7c-2.8,0-5-2.2-5-5c0-2.8,2.2-5,5-5H221c2.8,0,5,2.2,5,5C226,454.5,223.8,456.8,221,456.8z"
				/>
		</g>
	</g>
	<g>
		<g>
			<path class="st1" d="M269,456.8h-19c-2.8,0-5-2.2-5-5c0-2.8,2.2-5,5-5h19c2.8,0,5,2.2,5,5C274,454.5,271.8,456.8,269,456.8z"/>
		</g>
	</g>
	<g>
		<g>
			<path class="st1" d="M295,456.8h-6c-2.8,0-5-2.2-5-5c0-2.8,2.2-5,5-5h6c2.8,0,5,2.2,5,5C300,454.5,297.8,456.8,295,456.8z"/>
		</g>
	</g>
</g>
</svg>
